<?xml version="1.0" encoding="utf-8"?>
<!-- Generator: Adobe Illustrator 22.1.0, SVG Export Plug-In . SVG Version: 6.00 Build 0)  -->
<svg version="1.1" id="Layer_1" xmlns="http://www.w3.org/2000/svg" xmlns:xlink="http://www.w3.org/1999/xlink" x="0px" y="0px"
	 viewBox="0 0 80 80" style="enable-background:new 0 0 80 80;" xml:space="preserve">
<style type="text/css">
	.st0{fill:url(#SVGID_1_);}
	.st1{fill:url(#SVGID_2_);}
	.st2{opacity:0.43;fill:url(#SVGID_3_);}
	.st3{fill:url(#SVGID_4_);}
	.st4{fill:url(#SVGID_5_);}
	.st5{fill:url(#SVGID_6_);}
	.st6{fill:url(#SVGID_7_);}
	.st7{fill:url(#SVGID_8_);}
	.st8{fill:url(#SVGID_9_);}
	.st9{opacity:0.25;fill:url(#SVGID_10_);}
	.st10{fill:url(#SVGID_11_);}
	.st11{opacity:0.17;fill:url(#SVGID_12_);}
	.st12{fill:#2CB5AE;}
	.st13{font-family:'MyriadPro-Regular';}
	.st14{font-size:12px;}
	.st15{fill:#1EBCAD;}
</style>
<g>
	<g>
		
			<linearGradient id="SVGID_1_" gradientUnits="userSpaceOnUse" x1="8.6363" y1="30.4232" x2="60.8321" y2="30.4232" gradientTransform="matrix(0.9487 -0.316 0.316 0.9487 -5.5212 13.7439)">
			<stop  offset="0" style="stop-color:#262262"/>
			<stop  offset="0.5" style="stop-color:#662D91"/>
			<stop  offset="0.6733" style="stop-color:#642C8E"/>
			<stop  offset="0.7998" style="stop-color:#5C2A85"/>
			<stop  offset="0.911" style="stop-color:#4E2675"/>
			<stop  offset="1" style="stop-color:#3E2262"/>
		</linearGradient>
		<path class="st0" d="M15.2,31c0,0,5.8,1.7,33.5-2.1c6.2-0.9,10.3-1.4,14.2-1c0,0,3.4,2.1-4.2,4c-7.7,1.9-18.4,6.5-18.4,6.5
			s-15.5,2.3-16.9,2.2c-1.4-0.1-7.8,0.4-11.3-2.9S15.2,31,15.2,31z"/>
		
			<linearGradient id="SVGID_2_" gradientUnits="userSpaceOnUse" x1="8.6363" y1="30.4232" x2="60.8321" y2="30.4232" gradientTransform="matrix(0.9487 -0.316 0.316 0.9487 -5.5212 13.7439)">
			<stop  offset="0" style="stop-color:#17224D"/>
			<stop  offset="0.1136" style="stop-color:#32235C;stop-opacity:0.8864"/>
			<stop  offset="0.2834" style="stop-color:#55256E;stop-opacity:0.7166"/>
			<stop  offset="0.4564" style="stop-color:#70267D;stop-opacity:0.5436"/>
			<stop  offset="0.6319" style="stop-color:#832687;stop-opacity:0.3681"/>
			<stop  offset="0.8111" style="stop-color:#8E278D;stop-opacity:0.1889"/>
			<stop  offset="1" style="stop-color:#92278F;stop-opacity:0"/>
		</linearGradient>
		<path class="st1" d="M15.2,31c0,0,5.8,1.7,33.5-2.1c6.2-0.8,10.3-1.4,14.2-1c0,0,3.4,2.1-4.2,4c-7.7,1.9-18.4,6.5-18.4,6.5
			s-15.5,2.3-16.9,2.2c-1.4-0.1-7.8,0.4-11.3-2.9S15.2,31,15.2,31z"/>
		
			<linearGradient id="SVGID_3_" gradientUnits="userSpaceOnUse" x1="8.6363" y1="30.8183" x2="52.5364" y2="30.8183" gradientTransform="matrix(0.9487 -0.316 0.316 0.9487 -5.5212 13.7439)">
			<stop  offset="0" style="stop-color:#92278F;stop-opacity:0"/>
			<stop  offset="0.1214" style="stop-color:#972D90;stop-opacity:0.1214"/>
			<stop  offset="0.429" style="stop-color:#9F3591;stop-opacity:0.429"/>
			<stop  offset="1" style="stop-color:#A13791"/>
		</linearGradient>
		<path class="st2" d="M32.4,36.1c-16.4,2.4-15.9,0.2-15.9,0.2s-1.9-1.7-3.7-3.6c-1.5,1.3-2.8,3.2-0.8,5.1c3.5,3.3,9.9,2.8,11.3,2.9
			c1.4,0.1,16.9-2.2,16.9-2.2s8.6-3.7,15.9-5.8C50.2,33.3,41.8,34.7,32.4,36.1z"/>
		
			<linearGradient id="SVGID_4_" gradientUnits="userSpaceOnUse" x1="3.4026" y1="21.9627" x2="68.4863" y2="21.9627" gradientTransform="matrix(0.9487 -0.316 0.316 0.9487 -5.5212 13.7439)">
			<stop  offset="0" style="stop-color:#1C75BC"/>
			<stop  offset="0.5" style="stop-color:#00AEEF"/>
			<stop  offset="1" style="stop-color:#4FD5DF"/>
		</linearGradient>
		<path class="st3" d="M60.8,1.3c0,0,13.3,8.7-13.1,20.1C19.4,33.7,12,40.8,23.7,40.7c0,0-16.3,2.3-18.9-6.8
			c-1.5-5.4,4.6-8.6,12.1-12.2C16.9,21.7,43.1,10.8,60.8,1.3z"/>
		
			<linearGradient id="SVGID_5_" gradientUnits="userSpaceOnUse" x1="34.8912" y1="66.5385" x2="34.8912" y2="48.831" gradientTransform="matrix(0.9487 -0.316 0.316 0.9487 -5.5212 13.7439)">
			<stop  offset="0" style="stop-color:#DA1C5C"/>
			<stop  offset="0.5" style="stop-color:#9E1F63"/>
			<stop  offset="1" style="stop-color:#9E1F63"/>
		</linearGradient>
		<path class="st4" d="M46.9,47.7c0,0-9,8.9,7.5,16c0.2,0.1,0,0.2-0.2,0.2c-2.6-0.5-6.8-1.6-10.2-2.7C33.8,57.9,41.8,51,46.9,47.7z"
			/>
		
			<linearGradient id="SVGID_6_" gradientUnits="userSpaceOnUse" x1="34.9628" y1="66.5385" x2="34.9628" y2="48.831" gradientTransform="matrix(0.9487 -0.316 0.316 0.9487 -5.5212 13.7439)">
			<stop  offset="0" style="stop-color:#DA1C5C"/>
			<stop  offset="0.9951" style="stop-color:#351840"/>
		</linearGradient>
		<path class="st5" d="M46.9,47.7c0,0-9,8.9,7.5,16c0.2,0.1,0,0.2-0.2,0.2c-2.6-0.5-8.8-1.9-11.4-3.3C34.4,55.9,41.8,51,46.9,47.7z"
			/>
		
			<linearGradient id="SVGID_7_" gradientUnits="userSpaceOnUse" x1="22.1974" y1="47.7743" x2="68.149" y2="47.7743" gradientTransform="matrix(0.9487 -0.316 0.316 0.9487 -5.5212 13.7439)">
			<stop  offset="0" style="stop-color:#EE2A7B"/>
			<stop  offset="0.5" style="stop-color:#DA1C5C"/>
			<stop  offset="1" style="stop-color:#9E1F63"/>
		</linearGradient>
		<path class="st6" d="M72.5,32.6c-0.6-4.2-10.3-4.7-10.3-4.7c5.9,1.9-12.2,4.1-25.5,12.7C27.3,46.7,31,53,31,53l0,0
			c2.9,5.7,13.1,8.2,13.1,8.2C27.9,47.6,73.5,40.3,72.5,32.6z"/>
		
			<linearGradient id="SVGID_8_" gradientUnits="userSpaceOnUse" x1="22.1974" y1="47.7743" x2="68.187" y2="47.7743" gradientTransform="matrix(0.9487 -0.316 0.316 0.9487 -5.5212 13.7439)">
			<stop  offset="0" style="stop-color:#EE2A7B;stop-opacity:0"/>
			<stop  offset="0.1889" style="stop-color:#F13178;stop-opacity:0.3778"/>
			<stop  offset="0.5" style="stop-color:#F23477"/>
			<stop  offset="0.606" style="stop-color:#EE3376;stop-opacity:0.7881"/>
			<stop  offset="0.7168" style="stop-color:#E13073;stop-opacity:0.5664"/>
			<stop  offset="0.8299" style="stop-color:#CC2B6E;stop-opacity:0.3402"/>
			<stop  offset="0.9438" style="stop-color:#AF2367;stop-opacity:0.1123"/>
			<stop  offset="1" style="stop-color:#9E1F63;stop-opacity:0"/>
		</linearGradient>
		<path class="st7" d="M72.5,32.6c-0.3-4.2-10.3-4.7-10.3-4.7c5.9,1.9-12.2,4.1-25.5,12.7C27.3,46.7,31,53,31,53l0,0
			c2.9,5.7,13.1,8.2,13.1,8.2C27.9,47.6,72.3,40.6,72.5,32.6z"/>
		
			<linearGradient id="SVGID_9_" gradientUnits="userSpaceOnUse" x1="3.4026" y1="21.9627" x2="66.8429" y2="21.9627" gradientTransform="matrix(0.9487 -0.316 0.316 0.9487 -5.5212 13.7439)">
			<stop  offset="0" style="stop-color:#D9E8BC"/>
			<stop  offset="1" style="stop-color:#4FD5DF"/>
		</linearGradient>
		<path class="st8" d="M32.6,20.4c30.5-12.7,28.1-19,28.1-19C45.1,10,16.9,21.7,16.9,21.7C9,25.5,3.3,28.6,4.8,33.9
			c2.5,9.1,18.9,6.8,18.9,6.8C4.7,42.7,1.1,33.4,32.6,20.4z"/>
		
			<linearGradient id="SVGID_10_" gradientUnits="userSpaceOnUse" x1="26.0695" y1="40.8327" x2="49.9775" y2="-0.5773" gradientTransform="matrix(0.9487 -0.316 0.316 0.9487 -5.5212 13.7439)">
			<stop  offset="0" style="stop-color:#1C75BC;stop-opacity:0"/>
			<stop  offset="2.620730e-02" style="stop-color:#2E80C0;stop-opacity:5.241460e-02"/>
			<stop  offset="0.1239" style="stop-color:#6DA6CE;stop-opacity:0.2478"/>
			<stop  offset="0.2174" style="stop-color:#A1C6DA;stop-opacity:0.4349"/>
			<stop  offset="0.3043" style="stop-color:#CADFE3;stop-opacity:0.6085"/>
			<stop  offset="0.3829" style="stop-color:#E7F0EA;stop-opacity:0.7659"/>
			<stop  offset="0.4508" style="stop-color:#F9FBEE;stop-opacity:0.9016"/>
			<stop  offset="0.5" style="stop-color:#FFFFEF"/>
			<stop  offset="0.6046" style="stop-color:#FCFEEF;stop-opacity:0.7907"/>
			<stop  offset="0.681" style="stop-color:#F3FCEE;stop-opacity:0.6379"/>
			<stop  offset="0.7485" style="stop-color:#E3F8EC;stop-opacity:0.5031"/>
			<stop  offset="0.8107" style="stop-color:#CCF3EA;stop-opacity:0.3786"/>
			<stop  offset="0.8694" style="stop-color:#AFECE8;stop-opacity:0.2612"/>
			<stop  offset="0.9254" style="stop-color:#8CE3E5;stop-opacity:0.1491"/>
			<stop  offset="0.9784" style="stop-color:#62DAE1;stop-opacity:4.321724e-02"/>
			<stop  offset="1" style="stop-color:#4FD5DF;stop-opacity:0"/>
		</linearGradient>
		<path class="st9" d="M60.8,1.3L60.8,1.3c0,0,2.4,6.4-28.1,19c-24.1,10-27.7,17.8-19.6,20c2.7,0.6,5.4,0.6,7.5,0.6
			c1,0,2-0.1,3.1-0.2c-11.6,0.1-4.3-7,24-19.2C74.1,10.1,60.8,1.3,60.8,1.3z"/>
		
			<linearGradient id="SVGID_11_" gradientUnits="userSpaceOnUse" x1="22.1974" y1="47.7743" x2="65.1601" y2="47.7743" gradientTransform="matrix(0.9487 -0.316 0.316 0.9487 -5.5212 13.7439)">
			<stop  offset="0" style="stop-color:#EE2A7B;stop-opacity:0"/>
			<stop  offset="0.1864" style="stop-color:#D92775;stop-opacity:0.1864"/>
			<stop  offset="0.524" style="stop-color:#B9236B;stop-opacity:0.524"/>
			<stop  offset="0.8073" style="stop-color:#A52065;stop-opacity:0.8073"/>
			<stop  offset="1" style="stop-color:#9E1F63"/>
		</linearGradient>
		<path class="st10" d="M65.4,33.6c5.4-2.3,2.6-4.3,2.4-4.4c-2.8-1.1-5.6-1.2-5.6-1.2c5.9,1.9-12.2,4.1-25.5,12.7
			C27.3,46.7,31,53,31,53l0,0c2.9,5.7,13.1,8.2,13.1,8.2C14.1,51,59.5,36.1,65.4,33.6z"/>
		
			<linearGradient id="SVGID_12_" gradientUnits="userSpaceOnUse" x1="24.5886" y1="47.7743" x2="68.1871" y2="47.7743" gradientTransform="matrix(0.9487 -0.316 0.316 0.9487 -5.5212 13.7439)">
			<stop  offset="0" style="stop-color:#EE2A7B;stop-opacity:0"/>
			<stop  offset="4.750010e-02" style="stop-color:#F25797;stop-opacity:9.500021e-02"/>
			<stop  offset="0.1021" style="stop-color:#F583B2;stop-opacity:0.2041"/>
			<stop  offset="0.1591" style="stop-color:#F8A9CA;stop-opacity:0.3182"/>
			<stop  offset="0.2179" style="stop-color:#FBC9DD;stop-opacity:0.4358"/>
			<stop  offset="0.2791" style="stop-color:#FDE1EC;stop-opacity:0.5582"/>
			<stop  offset="0.3437" style="stop-color:#FEF2F7;stop-opacity:0.6873"/>
			<stop  offset="0.4138" style="stop-color:#FFFCFD;stop-opacity:0.8276"/>
			<stop  offset="0.5" style="stop-color:#FFFFFF"/>
			<stop  offset="0.5637" style="stop-color:#FDFBFC;stop-opacity:0.8726"/>
			<stop  offset="0.6304" style="stop-color:#F8EEF3;stop-opacity:0.7391"/>
			<stop  offset="0.6985" style="stop-color:#EFD9E5;stop-opacity:0.6029"/>
			<stop  offset="0.7676" style="stop-color:#E2BCD0;stop-opacity:0.4648"/>
			<stop  offset="0.8374" style="stop-color:#D296B6;stop-opacity:0.3252"/>
			<stop  offset="0.9078" style="stop-color:#BE6896;stop-opacity:0.1843"/>
			<stop  offset="0.9775" style="stop-color:#A63270;stop-opacity:4.495645e-02"/>
			<stop  offset="1" style="stop-color:#9E1F63;stop-opacity:0"/>
		</linearGradient>
		<path class="st11" d="M62.2,27.9c0,0,2.8,0.2,5.6,1.2c0.3,0.2,3.1,2.1-2.4,4.4c-5.9,2.5-52,17-21.3,27.7
			C27.9,47.6,72.3,40.6,72.5,32.6C72.3,28.3,62.2,27.9,62.2,27.9z"/>
	</g>
	<g>
		<text transform="matrix(1 0 0 1 2.9126 63.9068)" class="st12 st13 st14">midnight</text>
		<text transform="matrix(1 0 0 1 22.6667 77.6663)" class="st15 st13 st14">scribblings</text>
	</g>
</g>
</svg>
